:SAMPLES-PER-SECOND 30
:FULLY-SPECIFIED
:DEGREES
294
root  30.9283 38.7924 28.863 173.567 17.3393 178.59
RightUpLeg  -16.2995 -20.658 -18.0582
RightLeg  32.8177 8.45226 5.63029
RightFoot  -1.00888 -1.23753 13.5498
RightToes  -6.98493e-010 0 -3.6325e-017
Spine  8.1808 0.470956 -2.65876
Spine1  10.0008 -0.146403 0.087247
HEad  -12.4733 -35.8839 10.7918
LeftShoulder1  0.192264 2.93412 -27.5724
LeftArm  -16.4929 16.2367 -31.9637
LeftForeArm  75.3078 -78.7892 -98.1121
LeftHand  -0.0730758 2.90844 2.74612
RightShoulder  -0.514692 -5.05096 26.4426
RightArm  -8.77815 7.1438 46.925
RightForeArm  41.5218 77.6713 63.8899
RightHand  0.00391827 0.367949 0.0447287
LeftUpLeg  -0.124204 3.64852 5.83531
LeftLeg  18.6808 -6.3332 -0.848682
LeftFoot  -12.4581 0.0519653 -2.32437
LeftToes  7.91257e-010 -1.64976e-010 -3.02228e-011
295
root  31.431 38.8059 28.7433 173.699 18.1531 178.747
RightUpLeg  -14.2793 -18.6851 -19.1138
RightLeg  23.435 4.5549 1.92767
RightFoot  -1.92328 -0.914995 10.9096
RightToes  -6.98493e-010 0 -3.6325e-017
Spine  8.22629 0.415827 -1.84145
Spine1  10.3748 0.0523802 -0.212763
HEad  -14.0592 -35.7462 11.6302
LeftShoulder1  0.182133 2.96064 -27.3606
LeftArm  -15.9056 16.0033 -31.7642
LeftForeArm  77.9418 -78.6826 -101.044
LeftHand  -0.0897234 2.4911 3.13896
RightShoulder  -0.575409 -5.2074 27.0247
RightArm  -9.61556 6.45462 46.4215
RightForeArm  46.9961 78.1434 68.8833
RightHand  0.0178125 -0.512451 0.489494
LeftUpLeg  0.843016 4.16993 6.98098
LeftLeg  17.7676 -6.43559 -0.915837
LeftFoot  -12.4757 0.0447536 -3.03396
LeftToes  7.91257e-010 -1.64976e-010 -3.02228e-011
296
root  31.9433 38.7462 28.6122 174.055 18.8694 178.095
RightUpLeg  -13.021 -17.885 -20.6644
RightLeg  14.9477 3.15303 0.618905
RightFoot  -2.89182 -0.677382 8.91159
RightToes  -6.98493e-010 0 -3.6325e-017
Spine  8.03673 0.302695 -1.54948
Spine1  10.3624 0.150626 -0.512922
HEad  -14.8212 -35.632 11.6065
LeftShoulder1  0.167414 3.00412 -27.3377
LeftArm  -15.4445 15.4446 -31.8872
LeftForeArm  79.6696 -78.6279 -102.578
LeftHand  -0.0810568 2.65664 2.91243
RightShoulder  -0.52763 -5.07285 26.8277
RightArm  -10.5441 5.1701 46.165
RightForeArm  52.5875 78.5177 74.8976
RightHand  0.0213968 -0.374354 0.553476
LeftUpLeg  1.21047 3.54589 6.91461
LeftLeg  17.0252 -5.43187 -0.477332
LeftFoot  -12.6191 0.0296941 -4.1062
LeftToes  7.91257e-010 -1.64976e-010 -3.02228e-011
297
root  32.6149 38.6332 28.46 174.275 19.9828 177.429
RightUpLeg  -12.1785 -16.8071 -21.4063
RightLeg  8.12819 3.56031 -0.639842
RightFoot  -3.92401 -0.580444 8.50798
RightToes  -6.98493e-010 0 -3.6325e-017
Spine  8.1388 0.416785 -1.42102
Spine1  10.059 0.418636 -0.697877
HEad  -15.5944 -35.5591 11.6573
LeftShoulder1  0.132491 3.10905 -27.3929
LeftArm  -15.3331 15.249 -32.1688
LeftForeArm  81.3371 -78.5401 -104.369
LeftHand  -0.0903548 2.42368 3.11921
RightShoulder  -0.51668 -5.03829 26.8501
RightArm  -11.4085 4.03437 45.8546
RightForeArm  57.7138 78.7362 80.7753
RightHand  0.000176144 -0.181293 0.0237792
LeftUpLeg  1.82706 3.834 7.37223
LeftLeg  16.5445 -4.87933 -0.396215
LeftFoot  -12.9908 0.00649689 -4.94808
LeftToes  7.91257e-010 -1.64976e-010 -3.02228e-011
298
root  33.3853 38.4633 28.2916 174.453 21.1002 176.421
RightUpLeg  -12.3696 -17.1349 -21.7022
RightLeg  4.6721 3.43 -2.11033
RightFoot  -4.53719 -0.445623 6.98733
RightToes  -6.98493e-010 0 -3.6325e-017
Spine  7.62407 0.44535 -1.32225
Spine1  10.5975 0.705498 -1.4337
HEad  -17.6766 -34.111 11.5758
LeftShoulder1  0.160221 3.0239 -27.1978
LeftArm  -15.4537 14.9926 -32.7632
LeftForeArm  82.3765 -78.5396 -104.845
LeftHand  -0.0895094 2.14733 2.85906
RightShoulder  -0.574632 -5.18534 27.4175
RightArm  -11.7545 3.88703 44.8526
RightForeArm  62.2492 78.8422 85.225
RightHand  0.00649564 -0.242428 0.171605
LeftUpLeg  2.42387 4.14683 7.50456
LeftLeg  16.1049 -4.30088 -0.158428
LeftFoot  -13.3446 -0.0245961 -5.97525
LeftToes  7.91257e-010 -1.64976e-010 -3.02228e-011
299
root  34.2632 38.2554 28.1188 174.446 21.964 175.523
RightUpLeg  -12.9663 -17.9237 -22.0526
RightLeg  5.16828 -0.59554 -2.12165
RightFoot  -4.44602 -0.365861 5.55088
RightToes  -6.98493e-010 0 -3.6325e-017
Spine  7.83276 0.3623 -1.40765
Spine1  10.4257 0.715487 -1.71821
HEad  -18.2561 -34.1054 11.7536
LeftShoulder1  0.175888 2.97922 -27.3602
LeftArm  -15.3057 15.0466 -33.191
LeftForeArm  84.0175 -78.4555 -106.418
LeftHand  -0.0909672 2.65131 3.25816
RightShoulder  -0.577078 -5.19388 27.3832
RightArm  -12.2628 3.2527 43.995
RightForeArm  67.692 78.8795 90.7514
RightHand  0.041134 0.0597766 0.885206
LeftUpLeg  3.2389 4.19433 7.89121
LeftLeg  15.7551 -3.88695 0.0235779
LeftFoot  -13.6596 -0.0627136 -7.12214
LeftToes  7.91257e-010 -1.64976e-010 -3.02228e-011
300
root  35.2563 38.0217 27.9279 174.634 22.8374 174.914
RightUpLeg  -13.7524 -19.1021 -21.9159
RightLeg  7.84223 -5.20069 -1.47083
RightFoot  -4.44387 -0.290685 4.3597
RightToes  -6.98493e-010 0 -3.6325e-017
Spine  7.93039 0.0537711 -1.01614
Spine1  10.3424 0.527122 -2.10284
HEad  -20.2763 -31.7582 11.1555
LeftShoulder1  0.123925 3.1373 -27.5922
LeftArm  -15.1911 15.3869 -33.4426
LeftForeArm  86.5731 -78.3384 -108.59
LeftHand  -0.0898176 1.91818 2.70275
RightShoulder  -0.535335 -5.08984 26.9652
RightArm  -12.8305 2.78589 43.7706
RightForeArm  72.9173 78.8155 95.9998
RightHand  0.0586293 -0.116218 1.31027
LeftUpLeg  4.1106 4.56664 8.82876
LeftLeg  15.3399 -3.78186 0.119906
LeftFoot  -13.9281 -0.0994132 -8.11404
LeftToes  7.91257e-010 -1.64976e-010 -3.02228e-011
